# xmcd
#
# Track frame offsets:
#	150
#	13753
#	27248
#	47123
#	61854
#	77263
#	93151
#	106407
#	123674
#	138157
#	154917
#	171797
#
# Disc length: 2450 seconds
#
# Revision: 1
# Processed by: cddbd v1.5.2PL0 Copyright (c) Steve Scherf et al.
# Submitted via: audiograbber 1.83.01
#
DISCID=8f09900c
DTITLE=Georges Hamel - Chansons Du Patrimoine Volume 1
DYEAR=2002
DGENRE=Country
TTITLE0=Rose Des Bois (Gaétan Proulx-Gaétan Proulx)
TTITLE1=L'enfant A L'hirondelle(Gerry and Johanne)
TTITLE2=Sur Ce Vieux Rocher Blanc(Paul Brunelle-Paul Brunelle)
TTITLE3=Les Jubilés D'or(Roland Lebrun-Roland Lebrun)
TTITLE4=Chanson De Iles Aux Coudres(Céline Naud-Céline Naud)
TTITLE5=La Complainte Des Mineurs(Paul Brunelle-Paul Brunelle)
TTITLE6=Le Coeur Ne Vieillit Pas(Domaine Public)
TTITLE7=Quand Le Soleil Dit Bonjour Aux Montagnes(L.Vincent and H.Peace)
TTITLE8=Demain J'aurai 20 Ans(Domaine Public)
TTITLE9=La Chanson Du Prisonnier(Paul Brunelle-Paul Brunelle)
TTITLE10=Partons La Mer Est Belle(Domaine Public)
TTITLE11=Laissez Venir A Moi Les Petits Enfants(Adapt.Roger Charlebois)
EXTD=
EXTT0=
EXTT1=
EXTT2=
EXTT3=
EXTT4=
EXTT5=
EXTT6=
EXTT7=
EXTT8=
EXTT9=
EXTT10=
EXTT11=
PLAYORDER=
